<?xml version="1.0" encoding="UTF-8"?>
<!DOCTYPE svg PUBLIC "-//W3C//DTD SVG 1.1//EN" "http://www.w3.org/Graphics/SVG/1.1/DTD/svg11.dtd">
<svg xmlns="http://www.w3.org/2000/svg" version="1.1" width="1920px" height="1080px" style="shape-rendering:geometricPrecision; text-rendering:geometricPrecision; image-rendering:optimizeQuality; fill-rule:evenodd; clip-rule:evenodd" xmlns:xlink="http://www.w3.org/1999/xlink">
<g><path style="opacity:1" fill="#fefefe" d="M -0.5,-0.5 C 639.5,-0.5 1279.5,-0.5 1919.5,-0.5C 1919.5,359.5 1919.5,719.5 1919.5,1079.5C 1279.5,1079.5 639.5,1079.5 -0.5,1079.5C -0.5,719.5 -0.5,359.5 -0.5,-0.5 Z"/></g>
<g><path style="opacity:1" fill="#080808" d="M 835.5,287.5 C 845.566,287.105 855.566,287.605 865.5,289C 875.091,292.371 876.925,298.204 871,306.5C 859.408,318.148 845.908,326.314 830.5,331C 828.078,328.997 827.245,326.497 828,323.5C 836.833,318 845.667,312.5 854.5,307C 857.399,304.723 860.066,302.223 862.5,299.5C 847.711,297.948 833.044,298.781 818.5,302C 785.125,308.625 752.459,317.791 720.5,329.5C 707.007,390.81 693.507,452.143 680,513.5C 677.856,522.071 676.356,530.737 675.5,539.5C 697.083,533.418 719.083,530.918 741.5,532C 744.299,535.339 743.966,538.339 740.5,541C 727.068,541.358 713.735,542.691 700.5,545C 690.744,546.647 681.244,549.147 672,552.5C 661.436,600.318 651.77,648.318 643,696.5C 641.255,705.453 640.255,714.453 640,723.5C 644.499,719.1 647.999,719.767 650.5,725.5C 648.201,732.095 645.368,738.429 642,744.5C 638.257,750.029 633.924,750.695 629,746.5C 627.43,740.947 627.097,735.281 628,729.5C 629.345,714.742 631.345,700.075 634,685.5C 642.187,642.756 650.687,600.09 659.5,557.5C 646.268,561.614 633.601,567.114 621.5,574C 608.284,581.885 595.618,590.552 583.5,600C 578.225,600.312 576.058,597.812 577,592.5C 602.117,570.686 630.617,554.686 662.5,544.5C 678.006,474.637 693.006,404.637 707.5,334.5C 659.839,350.998 614.839,372.831 572.5,400C 567.404,402.898 564.071,401.564 562.5,396C 562.903,394.527 563.57,393.194 564.5,392C 610.577,362.63 659.577,339.13 711.5,321.5C 711.618,315.409 712.451,309.409 714,303.5C 715.077,298.885 717.91,297.385 722.5,299C 723.333,299.833 724.167,300.667 725,301.5C 724.449,306.353 723.615,311.186 722.5,316C 742.095,310.361 761.761,304.694 781.5,299C 799.619,295.042 817.619,291.209 835.5,287.5 Z"/></g>
<g><path style="opacity:1" fill="#080808" d="M 1323.5,376.5 C 1329.88,376.213 1333.54,379.213 1334.5,385.5C 1331.62,399.659 1326.12,412.659 1318,424.5C 1302.9,447.275 1285.9,468.608 1267,488.5C 1229.46,568.572 1194.96,649.906 1163.5,732.5C 1166.33,734.441 1167.17,737.107 1166,740.5C 1163.95,746.55 1159.95,750.55 1154,752.5C 1150.28,751.756 1148.45,749.423 1148.5,745.5C 1152.43,730.536 1157.27,715.87 1163,701.5C 1179.49,661.105 1195.99,621.105 1212.5,581.5C 1190.25,594.206 1168.42,607.539 1147,621.5C 1130.02,664.478 1106.69,703.478 1077,738.5C 1054.9,763.467 1028.06,781.301 996.5,792C 987.875,793.419 979.208,793.752 970.5,793C 959.956,787.752 956.122,779.252 959,767.5C 963.007,756.834 968.674,747.167 976,738.5C 989.079,724.543 1002.91,711.377 1017.5,699C 1056.28,668.558 1096.44,640.058 1138,613.5C 1143.38,600.326 1146.05,586.66 1146,572.5C 1144.1,565.26 1139.43,561.927 1132,562.5C 1127.79,562.644 1123.62,563.144 1119.5,564C 1112.17,566.277 1104.84,568.444 1097.5,570.5C 1093.41,570.91 1091.41,569.077 1091.5,565C 1092.13,562.007 1093.3,559.173 1095,556.5C 1103.78,545.044 1111.78,533.044 1119,520.5C 1123.55,513.089 1126.05,505.089 1126.5,496.5C 1122.27,496.778 1118.27,497.944 1114.5,500C 1103.44,507.064 1093.6,515.564 1085,525.5C 1074.65,542.202 1063.32,558.202 1051,573.5C 1044.1,581.072 1036.6,587.905 1028.5,594C 1014.25,601.624 1006.08,597.457 1004,581.5C 1003.4,572.42 1003.73,563.42 1005,554.5C 998.764,563.738 990.931,571.238 981.5,577C 970.75,578.269 964.584,573.436 963,562.5C 951.845,581.98 939.512,600.647 926,618.5C 920.802,624.033 915.302,629.2 909.5,634C 897.141,640.904 889.641,637.404 887,623.5C 886.994,605.873 889.327,588.54 894,571.5C 898.143,554.756 902.976,538.256 908.5,522C 908.167,521.833 907.833,521.667 907.5,521.5C 897.516,528.883 886.35,533.217 874,534.5C 870.647,534.415 867.481,533.915 864.5,533C 851.368,551.809 836.368,569.143 819.5,585C 813.687,590.075 807.354,594.408 800.5,598C 782.255,604.626 770.088,598.793 764,580.5C 760.791,543.66 770.458,510.66 793,481.5C 797.188,476.822 802.355,473.822 808.5,472.5C 812.151,472.743 814.984,474.41 817,477.5C 817.696,481.905 817.363,486.239 816,490.5C 812.75,497.34 808.75,503.673 804,509.5C 796.3,518.201 787.967,526.201 779,533.5C 772.618,548.438 771.285,563.771 775,579.5C 777.968,587.737 783.802,590.904 792.5,589C 795.376,588.562 798.043,587.562 800.5,586C 822.859,569.146 841.525,548.979 856.5,525.5C 851.379,518.681 849.546,511.014 851,502.5C 855.867,483.249 866.7,468.416 883.5,458C 887.909,456.738 891.743,457.572 895,460.5C 896.534,464.711 896.867,469.044 896,473.5C 890.663,490.841 883.163,507.174 873.5,522.5C 876.106,523.652 878.773,523.818 881.5,523C 892.117,518.36 902.117,512.693 911.5,506C 917.523,504.191 921.189,506.357 922.5,512.5C 911.985,543.561 903.818,575.228 898,607.5C 897.294,613.87 897.461,620.203 898.5,626.5C 901.516,626.159 904.182,624.993 906.5,623C 922.898,606.032 936.731,587.199 948,566.5C 956.323,551.35 964.49,536.183 972.5,521C 977.606,518.271 980.606,519.771 981.5,525.5C 980.817,529.199 979.317,532.532 977,535.5C 973.195,545.576 972.695,555.742 975.5,566C 976.833,566.667 978.167,566.667 979.5,566C 982.63,563.872 985.463,561.372 988,558.5C 994.833,549.667 1001.67,540.833 1008.5,532C 1015.62,530.279 1018.95,533.112 1018.5,540.5C 1015.31,553.999 1014.14,567.666 1015,581.5C 1015.02,586.044 1017.19,587.544 1021.5,586C 1035.75,575.086 1047.92,562.253 1058,547.5C 1069.55,524.948 1085.72,506.448 1106.5,492C 1111.9,488.644 1117.74,486.477 1124,485.5C 1135.88,487.073 1140.21,493.74 1137,505.5C 1130.54,523.436 1121.37,539.769 1109.5,554.5C 1109.83,554.833 1110.17,555.167 1110.5,555.5C 1123.34,550.203 1136.01,550.37 1148.5,556C 1152.43,559.688 1154.93,564.188 1156,569.5C 1157.29,581.099 1156.13,592.433 1152.5,603.5C 1153,604.521 1153.67,604.688 1154.5,604C 1176.42,590.456 1198.59,577.289 1221,564.5C 1239.84,521.142 1259.51,478.142 1280,435.5C 1289.39,416.545 1300.89,399.045 1314.5,383C 1317.4,380.583 1320.4,378.416 1323.5,376.5 Z"/></g>
<g><path style="opacity:1" fill="#ebebeb" d="M 1320.5,392.5 C 1321.04,392.56 1321.38,392.893 1321.5,393.5C 1312.6,413.544 1301.1,431.877 1287,448.5C 1295.33,428.169 1306.5,409.502 1320.5,392.5 Z"/></g>
<g><path style="opacity:1" fill="#f3f3f3" d="M 883.5,469.5 C 884.497,469.47 885.164,469.97 885.5,471C 880.341,487.481 873.175,502.981 864,517.5C 860.806,510.544 860.806,503.544 864,496.5C 868.782,486.224 875.282,477.224 883.5,469.5 Z"/></g>
<g><path style="opacity:1" fill="#e3e3e3" d="M 805.5,484.5 C 806.043,484.56 806.376,484.893 806.5,485.5C 801.889,494.386 796.056,502.386 789,509.5C 792.453,499.958 797.953,491.624 805.5,484.5 Z"/></g>
<g><path style="opacity:1" fill="#fbfbfb" d="M 1129.5,631.5 C 1130.24,631.369 1130.91,631.536 1131.5,632C 1117.24,662.702 1100.08,691.535 1080,718.5C 1059.59,744.446 1034.42,764.279 1004.5,778C 996.899,780.868 989.066,782.701 981,783.5C 969.82,783.321 966.153,777.988 970,767.5C 971.746,763.673 973.746,760.007 976,756.5C 983.418,746.411 991.585,736.911 1000.5,728C 1019.1,711.375 1038.43,695.708 1058.5,681C 1081.88,663.985 1105.55,647.485 1129.5,631.5 Z"/></g>
</svg>
